<svg width="76" height="54" viewBox="0 0 76 54" fill="none" xmlns="http://www.w3.org/2000/svg">
<path d="M74.2917 37.5012C74.9695 36.4343 75.2814 35.1528 75.1702 33.8945L74.1296 22.0014C73.9845 20.337 73.0241 18.8594 71.562 18.0488C70.0551 17.2135 68.4895 16.44 66.9101 15.7514C66.6368 15.6325 66.3187 15.7576 66.1983 16.0309C66.0794 16.3041 66.2045 16.6222 66.4777 16.7426C68.0263 17.4173 69.5595 18.1754 71.0371 18.9937C72.1842 19.6298 72.9377 20.7893 73.0519 22.0955C73.143 23.1408 72.9917 24.2108 72.6119 25.1896C71.0263 29.275 67.7747 32.5296 63.6894 34.1184L62.0759 34.7452C56.6767 36.8434 50.7726 37.6973 45.0013 37.2171C39.2299 36.7354 33.5482 34.915 28.572 31.9522L24.5917 29.5822C21.5871 27.7927 18.1518 26.7923 14.6563 26.6888L14.3351 26.6796C9.53804 26.536 4.98181 24.9256 1.16051 22.023C1.11882 21.9921 1.09258 21.9442 1.08794 21.8917C1.0339 21.268 1.35968 20.6844 1.91242 20.4095C8.49741 17.2537 16.5044 14.8235 25.6971 13.1931C33.4339 12.0227 41.3112 11.7603 49.1082 12.4149L49.4648 12.4442C53.9022 12.8163 58.287 13.7412 62.4959 15.1925C62.7784 15.2898 63.0857 15.14 63.1829 14.8574C63.2802 14.5749 63.1304 14.2677 62.8479 14.1704C58.5541 12.6897 54.0813 11.7479 49.5544 11.3681L49.1977 11.3388C41.3158 10.6779 33.3536 10.942 25.5211 12.1277C16.2172 13.7782 8.11759 16.2377 1.43688 19.4399C0.476535 19.9186 -0.0839224 20.919 0.0102592 21.989C0.016435 22.0538 0.573805 28.4289 0.573805 28.4289C0.598508 28.7099 0.834734 28.9229 1.1111 28.9214C1.12654 28.9214 1.14353 28.9214 1.15897 28.9198C1.45695 28.8936 1.67619 28.6311 1.64995 28.3347L1.21918 23.4079C5.06982 26.1191 9.57355 27.6214 14.3027 27.7619L14.6238 27.7711C17.9356 27.8699 21.1918 28.8179 24.0389 30.5132L28.0208 32.8832C33.1375 35.9294 38.9783 37.8007 44.9133 38.2963C45.9894 38.3859 47.0686 38.4306 48.1494 38.4306C53.0314 38.4306 57.9242 37.5212 62.4696 35.755L64.0831 35.1281C68.2734 33.4992 71.6423 30.2307 73.4055 26.1098L74.0956 33.9902C74.1852 35.0139 73.932 36.056 73.3808 36.9237C71.7921 39.428 69.5888 41.5232 67.0073 42.9838L65.4618 43.8592C54.7869 49.9023 41.6092 49.7587 31.0686 43.4825L25.5288 40.183C22.5212 38.3905 19.0704 37.3885 15.5502 37.2835L14.3953 37.2495C10.1603 37.1229 6.13978 35.7009 2.76623 33.1349C2.29378 32.7751 1.9927 32.2301 1.94175 31.6388C1.91551 31.3408 1.65303 31.1215 1.35659 31.1478C1.05861 31.174 0.839366 31.4365 0.865613 31.7329C0.944355 32.6269 1.39828 33.4514 2.11313 33.9948C5.66579 36.6968 9.90241 38.196 14.3645 38.3287L15.5193 38.3627C18.8574 38.4631 22.1275 39.4111 24.9761 41.1079L30.5158 44.4073C36.0679 47.7129 42.3271 49.3696 48.5925 49.3696C54.597 49.3696 60.6061 47.8473 65.9945 44.7964L67.54 43.921C70.2728 42.3739 72.6088 40.1537 74.2917 37.5012Z" fill="black"/>
<path d="M48.8538 15.4983C41.31 14.8652 33.6921 15.1169 26.2085 16.2455C20.045 17.3418 14.4497 18.7993 9.49358 20.5964C8.41744 20.987 8.48691 22.5233 9.58776 22.8367C11.1502 23.2814 12.7745 23.533 14.4296 23.5824L14.7508 23.5917C18.7712 23.7121 22.7238 24.8624 26.1792 26.9205L30.161 29.2905C34.7358 32.014 39.9575 33.6877 45.2625 34.1292C50.5676 34.5708 55.9946 33.7865 60.9569 31.8565L62.5703 31.2297C65.8466 29.9559 68.4559 27.3466 69.7266 24.0688C69.7296 24.0626 69.7312 24.0549 69.7343 24.0487C70.1465 22.9649 69.6494 21.7498 68.6242 21.2078C62.5734 18.0118 56.0455 16.102 49.2073 15.5276L48.8538 15.4983ZM59.6538 23.9252C59.8668 26.3647 55.7522 28.7177 50.4626 29.1793C45.173 29.6425 40.7125 28.0399 40.4978 25.6004C40.2832 23.1609 44.3994 20.808 49.689 20.3463C54.9786 19.8847 59.4392 21.4873 59.6538 23.9252Z" fill="black"/>
<path d="M71.9452 50.259C71.7321 50.0505 71.3893 50.0536 71.1809 50.2667C70.9725 50.4798 70.9756 50.8225 71.1886 51.0309L74.0588 53.8456C74.1638 53.949 74.3012 54 74.4371 54C74.5776 54 74.7166 53.9459 74.8231 53.8379C75.0315 53.6248 75.0284 53.282 74.8154 53.0736L71.9452 50.259Z" fill="black"/>
<path d="M3.52075 7.84493L6.7291 10.2689C6.82637 10.3431 6.94062 10.3786 7.05487 10.3786C7.21853 10.3786 7.38065 10.3045 7.48718 10.164C7.66782 9.92618 7.61996 9.58651 7.38219 9.40741L4.17384 6.9834C3.93607 6.80275 3.5964 6.85061 3.4173 7.08838C3.23511 7.32615 3.28298 7.66583 3.52075 7.84493Z" fill="black"/>
<path d="M18.0991 5.10124C18.1007 5.10124 18.1022 5.10124 18.1038 5.10124C18.4018 5.09816 18.6426 4.85421 18.6395 4.55623L18.6071 0.535754C18.604 0.239314 18.3632 0 18.0667 0C18.0652 0 18.0636 0 18.0621 0C17.7641 0.00308792 17.5232 0.247034 17.5263 0.545018L17.5588 4.56549C17.5618 4.86193 17.8027 5.10124 18.0991 5.10124Z" fill="black"/>
</svg>
